<?xml version="1.0" encoding="utf-8"?>
<!-- Generator: Adobe Illustrator 27.5.0, SVG Export Plug-In . SVG Version: 6.00 Build 0)  -->
<svg version="1.1" xmlns="http://www.w3.org/2000/svg" xmlns:xlink="http://www.w3.org/1999/xlink" x="0px" y="0px"
	 viewBox="0 0 500 500" style="enable-background:new 0 0 500 500;" xml:space="preserve">
<g id="Background_Simple">
	<g>
		<path style="fill:#92E3A9;" d="M273.587,16.87c43.479,8.747,92.895,32.934,113.094,74.871
			c30.526,63.363,85.439,62.723,99.551,182.71c2.202,18.708,2.34,36.303,0.695,52.75c-0.883,8.841-2.293,17.355-4.18,25.523
			c-17.052,74.147-73.307,120.41-137.772,133.825c-84.783,17.659-135.042-35.421-165.085-70.339
			C149.847,381.293,49.996,349.4,35.196,231.554c-2.249-17.968-2.661-36.189-0.745-54.216c4.358-41.148,21.547-85.02,52.33-113.844
			c2.313-2.164,4.699-4.257,7.147-6.288C141.832,17.558,214.31,4.941,273.587,16.87z"/>
		<path style="opacity:0.7;fill:#FFFFFF;" d="M273.587,16.87c43.479,8.747,92.895,32.934,113.094,74.871
			c30.526,63.363,85.439,62.723,99.551,182.71c2.202,18.708,2.34,36.303,0.695,52.75c-0.883,8.841-2.293,17.355-4.18,25.523
			c-17.052,74.147-73.307,120.41-137.772,133.825c-84.783,17.659-135.042-35.421-165.085-70.339
			C149.847,381.293,49.996,349.4,35.196,231.554c-2.249-17.968-2.661-36.189-0.745-54.216c4.358-41.148,21.547-85.02,52.33-113.844
			c2.313-2.164,4.699-4.257,7.147-6.288C141.832,17.558,214.31,4.941,273.587,16.87z"/>
	</g>
</g>
<g id="Lines">
	<g>
		
			<line style="fill:none;stroke:#263238;stroke-width:2;stroke-miterlimit:10;" x1="243.196" y1="65.049" x2="243.196" y2="75.824"/>
		
			<line style="fill:none;stroke:#263238;stroke-width:2;stroke-miterlimit:10;" x1="243.196" y1="28.751" x2="243.196" y2="58.109"/>
		
			<line style="fill:none;stroke:#263238;stroke-width:2;stroke-miterlimit:10;" x1="129.265" y1="50.582" x2="151.778" y2="77.871"/>
		
			<line style="fill:none;stroke:#263238;stroke-width:2;stroke-miterlimit:10;" x1="16.698" y1="124.262" x2="56.267" y2="139.953"/>
		<line style="fill:none;stroke:#263238;stroke-width:2;stroke-miterlimit:10;" x1="38.46" y1="211.587" x2="50.809" y2="211.587"/>
		<line style="fill:none;stroke:#263238;stroke-width:2;stroke-miterlimit:10;" x1="11.24" y1="211.587" x2="30.704" y2="211.587"/>
		
			<line style="fill:none;stroke:#263238;stroke-width:2;stroke-miterlimit:10;" x1="355.081" y1="50.582" x2="332.568" y2="77.871"/>
		
			<line style="fill:none;stroke:#263238;stroke-width:2;stroke-miterlimit:10;" x1="449.14" y1="131.59" x2="428.079" y2="139.953"/>
		
			<line style="fill:none;stroke:#263238;stroke-width:2;stroke-miterlimit:10;" x1="467.648" y1="124.262" x2="456.892" y2="128.527"/>
		<g>
			
				<line style="fill:none;stroke:#263238;stroke-width:2;stroke-miterlimit:10;" x1="243.196" y1="455.823" x2="243.196" y2="408.75"/>
			
				<line style="fill:none;stroke:#263238;stroke-width:2;stroke-miterlimit:10;" x1="142.887" y1="417.481" x2="151.778" y2="406.703"/>
			
				<line style="fill:none;stroke:#263238;stroke-width:2;stroke-miterlimit:10;" x1="129.265" y1="433.992" x2="137.88" y2="423.549"/>
			
				<line style="fill:none;stroke:#263238;stroke-width:2;stroke-miterlimit:10;" x1="16.698" y1="360.312" x2="56.267" y2="344.621"/>
			
				<line style="fill:none;stroke:#263238;stroke-width:2;stroke-miterlimit:10;" x1="345.924" y1="422.892" x2="332.568" y2="406.703"/>
			
				<line style="fill:none;stroke:#263238;stroke-width:2;stroke-miterlimit:10;" x1="355.081" y1="433.992" x2="349.226" y2="426.895"/>
			
				<line style="fill:none;stroke:#263238;stroke-width:2;stroke-miterlimit:10;" x1="467.648" y1="360.312" x2="428.079" y2="344.621"/>
		</g>
		
			<line style="fill:none;stroke:#263238;stroke-width:2;stroke-miterlimit:10;" x1="473.106" y1="211.587" x2="433.537" y2="211.587"/>
	</g>
</g>
<g id="Brain">
	<g>
		<path style="fill:#263238;stroke:#263238;stroke-miterlimit:10;" d="M279.651,412.798c0,0,0-9.839-3.183-16.495
			s-12.154-18.81-17.652-26.333c-5.498-7.524-4.051-19.099-4.051-19.099s-9.26-2.604-20.835-17.652
			c-11.575-15.048-13.89-35.304-13.89-35.304l45.143-8.971c0,0,13.983-17.772,21.217-2.435c7.234,15.337,5.406,72.464,7.721,82.303
			s2.894,41.092,2.894,41.092"/>
		<path style="fill:#707070;stroke:#263238;stroke-miterlimit:10;" d="M259.973,282.867c0,0,2.604,14.18,4.341,24.018
			c1.736,9.839,7.234,18.81,7.234,18.81s-2.894,10.418,0.289,21.125c3.183,10.707,6.366,31.832,21.703,33.279
			c15.337,1.447,21.703-8.103,21.703-8.103s16.495,6.366,29.517-3.473c13.022-9.839,21.703-28.359,17.941-41.671
			c-3.762-13.311-8.392-19.388-28.07-26.623c-19.678-7.234-47.458-0.868-51.799,2.026s-7.813,10.418-7.813,10.418l-6.945-18.52
			l-2.894-12.443L259.973,282.867z"/>
		<path style="fill:#263238;stroke:#263238;stroke-miterlimit:10;" d="M66.957,194.317c0,0,1.157,27.202,16.205,43.117
			c15.048,15.916,32.121,24.019,44.564,25.465s21.125,3.473,21.125,3.473s5.788,37.619,27.202,45.143
			c21.414,7.524,24.018,7.234,32.7,1.736s15.337-10.418,15.337-10.418s-39.355-3.762-50.063-26.044
			c-10.707-22.282-28.648-39.066-47.458-48.905c-18.81-9.839-52.088-25.465-53.246-27.78
			C72.166,197.789,66.957,194.317,66.957,194.317z"/>
		<path style="fill:#92E3A9;" d="M92.712,142.518c0,0-4.051,4.63-6.656,8.103c-2.604,3.473-3.762,6.366-3.762,6.366
			s-10.707,6.945-13.311,14.758c-2.604,7.813-4.051,12.733-2.894,20.546c1.158,7.813,4.051,14.758,4.051,14.758
			s0.289,7.524,12.443,12.154c12.154,4.63,47.748,18.231,49.484,19.678s14.758,10.418,14.758,10.418l2.894,14.758
			c0,0,1.736,18.231,4.63,23.15c2.894,4.919,7.524,17.941,16.784,22.861c9.26,4.919,20.835,4.63,28.07,2.894
			c7.234-1.736,12.154-4.051,28.648-9.55s22.572-6.945,23.729-7.234s40.224,8.103,50.931,6.077
			c10.707-2.026,15.048-6.077,15.048-6.077s5.498,10.418,13.601,15.337c8.103,4.919,29.806,15.916,32.41,17.941
			c2.604,2.026,5.788,8.392,13.311,7.234c7.524-1.158,11.575-10.996,12.443-12.154s11.575-14.18,14.758-20.546
			c3.183-6.366,4.341-11.286,4.341-11.286s9.839-10.128,7.813-27.202c-2.026-17.073-4.341-31.542-8.681-43.986
			s-6.656-17.073-6.656-17.073s-2.894-27.491-16.205-40.224c-13.311-12.733-21.125-16.495-21.125-16.495s-9.26-14.18-21.993-19.388
			c-12.733-5.209-31.832-19.967-40.802-23.44c-8.971-3.473-14.18-0.868-14.18-0.868s-24.597-7.813-42.828-7.813
			c-18.231,0-18.231,0-18.231,0s-17.941-3.762-36.172,0s-37.33,0.868-50.641,6.656c-13.311,5.788-27.491,19.388-27.491,19.388
			S96.185,131.811,92.712,142.518z"/>
		<g>
			<path style="opacity:0.2;" d="M407.556,221.518c-4.341-12.443-6.656-17.073-6.656-17.073s-2.894-27.491-16.205-40.224
				c-6.158-5.89-11.121-9.842-14.696-12.409c-13.232,157.863-182.943,89.624-228.929,93.497c3.084,2.148,5.756,3.989,5.756,3.989
				l2.894,14.758c0,0,1.736,18.231,4.63,23.15s7.524,17.941,16.784,22.861c9.26,4.919,20.835,4.63,28.07,2.894
				c7.234-1.736,12.154-4.051,28.648-9.549c16.495-5.498,22.572-6.945,23.729-7.234c1.158-0.289,40.224,8.103,50.931,6.077
				s15.048-6.077,15.048-6.077s5.498,10.418,13.601,15.337c8.103,4.919,29.806,15.916,32.41,17.942
				c2.604,2.026,5.788,8.392,13.311,7.234s11.575-10.996,12.443-12.154s11.575-14.18,14.758-20.546
				c3.183-6.366,4.341-11.286,4.341-11.286s9.839-10.128,7.813-27.202C414.212,248.43,411.897,233.962,407.556,221.518z"/>
			<path style="opacity:0.2;" d="M226.605,159.63c0,0-2.353-8.068-8.741,7.732c-6.388,15.801-9.077,28.576-16.473,34.627
				c-7.396,6.051-23.533,3.698-25.55,7.06c-2.017,3.362-1.345,6.051-1.345,6.051s8.068-0.672,11.766-0.672
				c3.698,0,15.465,1.345,15.465,1.345l8.741-3.362c0,0-1.345-5.043-0.672-6.051c0.672-1.009,6.051-4.034,7.732-12.775
				c1.681-8.741,2.689-23.197,3.698-25.214C222.235,166.354,226.605,159.63,226.605,159.63z"/>
			<path style="opacity:0.2;" d="M205.426,241.324c0,0,10.422-6.388,16.809-6.388c6.388,0,18.826,2.353,31.265-3.362
				c12.439-5.715,28.24-17.482,28.24-17.482s17.482,5.379,28.239-4.707c10.758-10.085,10.422-27.567,16.809-28.576
				c6.387-1.009,4.707,18.826,0.336,24.205c-4.37,5.379-11.766,17.818-16.809,19.835c-5.043,2.017-13.111,4.37-19.499,4.37
				c-6.388,0-13.111,2.353-13.111,2.353l-13.784,7.396l-16.473,3.026c0,0-15.464,4.707-18.826,4.707
				C225.261,246.702,208.115,240.315,205.426,241.324z"/>
			<path style="opacity:0.2;" d="M296.196,114.245c0,0,0.672,9.077-4.37,15.128c-5.043,6.051-2.689,8.069-6.724,12.103
				c-4.034,4.034-7.732,3.698-11.767,8.405c-4.034,4.707-5.043,7.732-6.724,9.077c-1.681,1.345-9.413-3.698-15.464,6.387
				c-6.051,10.086,2.017,15.801-2.353,26.559c-4.37,10.758-5.715,14.12-5.715,14.12l17.146-4.37c0,0-5.043-7.732-5.715-15.128
				c-0.672-7.396-1.345-16.137,3.362-20.171s9.077-4.034,9.077-4.034s6.387-9.413,9.749-11.767
				c3.362-2.353,18.566-9.587,20.507-10.422c1.941-0.835,4.034-0.672,4.034-0.672v-15.801l-2.353-4.707L296.196,114.245z"/>
			<path style="opacity:0.2;" d="M316.367,122.65c0,0,6.051,4.37,8.405,13.784s-1.008,10.086-1.008,10.086l7.06,2.689
				c0,0,0.336-8.741-3.026-16.473C324.435,125.003,316.367,122.65,316.367,122.65z"/>
			<path style="opacity:0.2;" d="M225.261,110.884c0,0-6.387,7.396-11.43,12.103c-5.043,4.707-15.801,10.758-21.516,8.405
				c-5.715-2.353-7.396-5.043-7.396-5.043s9.413,9.749,7.732,15.465c-1.681,5.715-7.396,18.154-17.145,20.507
				c-9.749,2.353-25.214-2.353-33.282,0c-8.068,2.353-11.766,14.792-12.439,16.473c-0.672,1.681-4.707-0.336-10.086-1.681
				c-5.379-1.345-8.405-1.008-8.405-1.008s6.051,7.396,4.707,11.43c-1.345,4.034-4.37,4.707-4.37,4.707s6.724-2.689,9.749-3.362
				c3.026-0.672,8.405,1.009,8.405,1.009s8.405-15.801,14.456-16.809c6.051-1.008,11.094,2.017,11.094,2.017
				s11.094-7.732,15.128-7.732c4.034,0,11.43,6.388,11.43,6.388s2.353-4.034,4.37-5.043c2.017-1.009,5.043-1.681,5.043-1.681
				s0.672-17.482,5.379-23.869c4.707-6.387,22.861-15.801,22.861-15.801S214.839,123.323,225.261,110.884z"/>
			<path style="opacity:0.2;" d="M175.841,191.232c0,0-6.051,13.784-10.422,15.465c-4.37,1.681-7.732-3.698-7.732-3.698
				s1.009,9.413-2.689,10.758c-3.698,1.345-9.413-2.689-9.413-2.689s-0.336,2.689-4.034,3.362
				c-3.698,0.672-14.456-5.379-19.835-10.758c-5.379-5.379-6.724-9.413-6.724-9.413s-3.698,5.043-1.681,8.741
				c2.017,3.698,13.111,10.422,16.809,12.103c3.698,1.681,24.205,10.086,24.205,10.086s6.724-5.379,9.749-6.724
				c3.026-1.345,7.732-3.026,7.732-3.026s-1.345-1.681-0.672-5.715C171.807,205.688,175.841,191.232,175.841,191.232z"/>
			<path style="opacity:0.2;" d="M154.326,228.885c0,0-2.689,1.681-7.732,3.698c-5.043,2.017-31.938-10.086-45.049-16.473
				c-13.111-6.388-25.886-20.171-27.231-25.214c-1.345-5.043-1.008-7.732-1.008-7.732s-4.034,18.49-0.336,25.886
				c3.698,7.396,25.55,14.12,33.618,17.482c8.069,3.362,31.985,18.731,34.483,18.779c2.498,0.048,7.877,5.427,7.877,5.427
				s0.881-10.305,1.345-13.447C150.755,234.147,154.326,228.885,154.326,228.885z"/>
			<path style="opacity:0.2;" d="M346.96,200.645c0,0,9.077,3.698,17.482,1.345c8.405-2.353,13.447-11.43,16.809-8.405
				c3.362,3.026,8.405,16.809,8.068,30.929s-2.017,16.137-0.672,18.49c1.345,2.353,5.715,3.698,2.017,4.034
				c-3.698,0.336-7.06-0.672-7.06-0.672s2.017-12.103-1.345-22.861c-3.362-10.758-2.097-16.368-6.051-18.49
				c-3.954-2.123-2.353-0.672-13.447,2.017C351.666,209.722,345.039,205.735,346.96,200.645z"/>
			<path style="opacity:0.2;" d="M339.227,224.178c0,0-0.369,13.451,4.37,17.145c4.74,3.695,7.732-1.345,7.06,0.336
				c-0.672,1.681-7.732,12.439-4.707,19.835c3.026,7.396,21.852,9.749,21.852,9.749s15.801,4.034,22.188,9.749
				c6.388,5.715,5.715,14.792,5.715,14.792l-16.809-8.068c0,0-0.672-7.396-6.051-7.396c-5.379,0-10.758,0.336-17.482-1.345
				c-6.724-1.681-13.045-4.422-14.792-10.085c-1.747-5.663-4.034-10.086-5.715-10.422c-1.681-0.336-5.715-2.017-5.715-2.017
				s-11.767-4.034-13.784-4.707c-2.017-0.672-10.758-1.345-10.758-1.345s16.473-3.026,21.852-7.396
				C331.831,238.634,339.227,224.178,339.227,224.178z"/>
			<path style="opacity:0.2;" d="M398.732,242.668c0,0,2.353,10.422-7.06,12.775c-9.413,2.353-23.197,1.008-26.559-3.026
				c-3.362-4.034,4.707-21.852,4.707-21.852s-3.026-0.336-5.715-5.379c-2.69-5.043-5.379-12.439-5.379-12.439
				s-1.681,7.396-1.681,10.758c0,3.362,3.026,32.946,3.026,32.946s10.086,1.345,17.145,5.379s13.447,7.732,13.447,7.732
				s2.017-6.051,4.034-8.068C396.715,259.478,403.103,251.073,398.732,242.668z"/>
			<path style="opacity:0.2;" d="M180.548,249.056c0,0-0.336,17.818,13.111,19.163c13.447,1.345,23.197-6.388,31.601-6.388
				c8.405,0,8.741,3.698,14.456,1.681c5.715-2.017,13.784-7.396,22.188-6.051c8.405,1.345,19.163,7.732,23.533,7.732
				s9.077-2.017,13.447-1.345s17.482,4.37,19.835,3.362c2.353-1.009-0.672,3.698-4.37,5.043c-3.698,1.345-7.06,2.017-7.06,2.017
				s-3.362-4.37-11.766-4.37c-8.405,0-22.525-1.681-27.231-2.353c-4.707-0.672-10.758-4.37-14.456-3.026
				c-3.698,1.345-20.171,8.405-23.533,8.405c-3.362,0-15.465-4.034-24.878-0.336c-9.413,3.698-14.456,5.379-15.128,8.068
				c-0.672,2.69,4.37,9.077,8.405,10.086c4.034,1.009,8.741,1.345,22.188-3.698s21.18-12.103,38.997-8.405
				c17.818,3.698,34.627,9.413,39.67,11.094c5.043,1.681,13.111,3.698,18.154,2.017c5.043-1.681,7.06-4.707,7.06-4.707
				s1.009,5.379-2.353,6.388c-3.362,1.009-7.06,4.37-12.439,3.362c-5.379-1.009-40.768-15.659-50.006-13.928
				c-9.238,1.732-23.955,2.833-23.955,3.842c0,1.009,28.24-0.672,35.972,3.026c7.732,3.698,19.499,7.732,23.533,9.077
				c4.034,1.345,10.758,2.353,10.758,2.353s-18.826,1.345-31.938-1.345c-13.111-2.689-24.878-2.017-24.878-2.017
				s-42.696,13.447-45.049,13.784c-2.353,0.336-19.499,4.37-30.593-1.681c-11.094-6.051-18.49-18.154-20.507-25.886
				c-2.017-7.732-5.715-30.257-5.715-30.257s0.336-9.413,3.362-7.06c3.026,2.353,6.724,16.137,11.767,26.222
				s15.801,28.912,22.524,31.601c6.724,2.69,11.758-0.885,8.741-3.698c-3.018-2.813-10.422-14.12-13.111-27.231
				C178.195,260.486,180.548,249.056,180.548,249.056z"/>
			<path style="opacity:0.2;" d="M314.014,276.287c0,0,10.422-8.741,13.784-0.336c3.362,8.405,11.767,28.912,34.291,35.636
				c22.524,6.724,29.584,5.043,27.231-2.353c-2.353-7.396-2.353-7.396-2.353-7.396s4.587,6.869,9.749,3.698
				c5.162-3.171,11.709-12.829,11.709-12.829s-7.675,20.226-11.709,23.924c-4.034,3.698-4.021,3.041-7.39,7.908
				s-0.007,6.548-9.083,8.565s-13.508-2.248-16.671-3.646s-20.311-7.714-26.361-12.828c-6.05-5.114-17.482-16.473-17.818-17.818
				c-0.336-1.345-1.833-2.633-1.833-2.633s9.565-2.41,9.229-6.78C326.452,285.028,314.014,276.287,314.014,276.287z"/>
			<path style="opacity:0.2;" d="M338.219,156.941c0,0,9.077,6.724,10.086,16.473c1.008,9.749-5.043,14.12-7.06,19.163
				c-2.017,5.043-2.788,11.815,3.026,13.111c5.814,1.296,5.814,1.296,5.814,1.296s-4.806-8.356-1.78-11.718
				c3.026-3.362,14.792-11.767,15.464-13.448c0.672-1.681-3.026-5.715-0.672-8.068c2.353-2.353,5.043-1.345,8.741,0.336
				c3.698,1.681,14.12,8.741,14.12,8.741s2.689-3.698-8.405-11.43c-11.094-7.732-15.801-5.379-21.516-6.387
				C350.322,164.001,338.219,156.941,338.219,156.941z"/>
			<path style="opacity:0.2;" d="M145.585,140.468c0,0,12.103-4.707,17.818-3.362c5.715,1.345,12.775,6.051,12.775,6.051
				l6.724-3.026c0,0-5.715,8.068-6.051,9.413c-0.336,1.345-9.413-3.026-15.128-4.37C156.006,143.83,145.585,140.468,145.585,140.468
				z"/>
			<path style="opacity:0.2;" d="M111.294,176.104c0,0,2.689,8.741-2.353,9.077s-14.12-2.353-15.128-6.724
				c-1.009-4.37,5.043-12.103,8.068-13.784c3.026-1.681,13.111-4.707,13.111-4.707s-3.362-6.388-12.775-2.353
				c-9.413,4.034-9.077,15.128-12.439,16.137c-3.362,1.008-6.051-4.707-6.051-4.707s-2.474,4.559-0.336,8.741
				c2.138,4.182,9.051,7.736,10.758,8.405c1.707,0.669,12.601,6.542,17.482,6.051c4.881-0.49,6.388-5.379,4.707-9.413
				S111.294,176.104,111.294,176.104z"/>
			<path style="opacity:0.2;" d="M201.52,241.165c0,0-4.412-4.412-9.927-3.86c-5.515,0.551-12.684,5.515-18.751,4.412
				c-6.066-1.103-12.684-4.963-12.684-4.963s7.819,11.924,11.03,12.133C174.399,249.095,197.66,247.232,201.52,241.165z"/>
			<path style="opacity:0.2;" d="M284.245,168.92c0,0,3.86,10.478,0,18.199c-3.861,7.721-17.648,11.03-22.611,8.272
				c-4.964-2.758-7.125-8.866-7.125-8.866s-0.658,10.361,5.715,15.128c0,0,12.439-1.85,14.645-1.299
				c2.206,0.551,6.618,0.551,6.618,0.551s3.762-6.156,7.721-12.684c3.959-6.528,4.964-9.375,6.067-13.236
				c1.103-3.86,1.654-6.066,6.618-8.272c4.963-2.206,4.963-2.206,4.963-2.206s-3.86-4.964-10.478-1.103
				C289.759,167.265,289.759,171.126,284.245,168.92z"/>
			<path style="opacity:0.2;" d="M135.341,125.903c0,0-4.412,0.552-3.86,5.515c0.551,4.963-2.206,5.515-11.03,6.618
				s-14.339,2.206-19.302,6.066c-4.964,3.86-4.964,3.86-4.964,3.86l0,0l-7.169,11.581c0,0,15.442-16.545,28.126-17.096
				c12.684-0.551,13.787,2.758,13.787,4.412s-0.551,8.824-0.551,8.824s2.758-7.721,8.272-13.787L135.341,125.903z"/>
		</g>
		<path style="fill:none;stroke:#263238;stroke-miterlimit:10;" d="M92.712,142.518c0,0-4.051,4.63-6.656,8.103
			c-2.604,3.473-3.762,6.366-3.762,6.366s-10.707,6.945-13.311,14.758c-2.604,7.813-4.051,12.733-2.894,20.546
			c1.158,7.813,4.051,14.758,4.051,14.758s0.289,7.524,12.443,12.154c12.154,4.63,47.748,18.231,49.484,19.678
			s14.758,10.418,14.758,10.418l2.894,14.758c0,0,1.736,18.231,4.63,23.15c2.894,4.919,7.524,17.941,16.784,22.861
			c9.26,4.919,20.835,4.63,28.07,2.894c7.234-1.736,12.154-4.051,28.648-9.55s22.572-6.945,23.729-7.234s40.224,8.103,50.931,6.077
			c10.707-2.026,15.048-6.077,15.048-6.077s5.498,10.418,13.601,15.337c8.103,4.919,29.806,15.916,32.41,17.941
			c2.604,2.026,5.788,8.392,13.311,7.234c7.524-1.158,11.575-10.996,12.443-12.154s11.575-14.18,14.758-20.546
			c3.183-6.366,4.341-11.286,4.341-11.286s9.839-10.128,7.813-27.202c-2.026-17.073-4.341-31.542-8.681-43.986
			s-6.656-17.073-6.656-17.073s-2.894-27.491-16.205-40.224c-13.311-12.733-21.125-16.495-21.125-16.495s-9.26-14.18-21.993-19.388
			c-12.733-5.209-31.832-19.967-40.802-23.44c-8.971-3.473-14.18-0.868-14.18-0.868s-24.597-7.813-42.828-7.813
			c-18.231,0-18.231,0-18.231,0s-17.941-3.762-36.172,0s-37.33,0.868-50.641,6.656c-13.311,5.788-27.491,19.388-27.491,19.388
			S96.185,131.811,92.712,142.518z"/>
		<path style="fill:#FFFFFF;" d="M165.278,225.789c0,0,0-5.027,8.169-6.598c8.169-1.571,14.138,1.257,14.138,1.257
			S167.477,223.276,165.278,225.789z"/>
		<path style="fill:#FFFFFF;" d="M208.635,222.333c0,0,0-5.027,8.169-6.598c8.169-1.571,14.138,1.257,14.138,1.257
			S210.834,219.82,208.635,222.333z"/>
		<path style="fill:#FFFFFF;" d="M240.682,214.793c0,0,0-5.027,8.169-6.598c8.169-1.571,14.138,1.257,14.138,1.257
			S242.881,212.279,240.682,214.793z"/>
		<path style="fill:#FFFFFF;" d="M232.187,162.592c0,0-2.446-4.392,3.926-9.739c6.372-5.347,12.963-5.782,12.963-5.782
			S232.886,159.326,232.187,162.592z"/>
		<path style="fill:#FFFFFF;" d="M200.455,150.024c0,0-2.446-4.392,3.926-9.739c6.372-5.347,12.963-5.782,12.963-5.782
			S201.153,146.758,200.455,150.024z"/>
		<path style="fill:#FFFFFF;" d="M133.565,192.069c0,0-2.446-4.392,3.926-9.739c6.372-5.347,12.963-5.782,12.963-5.782
			S134.263,188.803,133.565,192.069z"/>
		<path style="fill:#FFFFFF;" d="M155.956,179.648c0,0,0.059-5.027,8.246-6.501c8.187-1.475,14.122,1.423,14.122,1.423
			S158.184,177.161,155.956,179.648z"/>
		<path style="fill:#FFFFFF;" d="M297.983,151.201c0,0,4.32-6.225,19.769,1.615c15.45,7.839,23.323,18.491,23.323,18.491
			S303.939,150.723,297.983,151.201z"/>
		<path style="fill:#FFFFFF;" d="M139.786,133.881c0,0-0.8-4.963,7.015-7.814c7.815-2.85,14.158-1.009,14.158-1.009
			S141.557,131.049,139.786,133.881z"/>
		<path style="fill:#FFFFFF;" d="M264.391,120.288c0,0-0.8-4.963,7.015-7.813c7.815-2.851,14.158-1.009,14.158-1.009
			S266.162,117.456,264.391,120.288z"/>
		<path style="fill:#FFFFFF;" d="M224.701,120.179c0,0-0.8-4.963,7.015-7.813c7.815-2.851,14.158-1.009,14.158-1.009
			S226.472,117.348,224.701,120.179z"/>
	</g>
	<path style="opacity:0.35;" d="M287.766,305.013c0,0,15.386,23.312,32.17,30.771c16.784,7.46,14.453,0.466,6.527-5.595
		c-7.926-6.061-26.109-23.311-18.649-19.116c7.46,4.196,12.122,9.325,27.974,17.717c15.852,8.392,27.041,6.527,27.041,6.527
		s-0.466,8.858-3.73,13.521c-3.264,4.662-7.926,5.129-12.588,4.196c-4.662-0.932-15.852-3.264-15.852-3.264s1.865,3.264,7.926,6.527
		c6.061,3.264,15.385,4.196,15.385,4.196s-0.701,3.934-9.209,8.028c-8.508,4.094-15.967-1.967-24.359-7.562
		c-8.392-5.595-23.312-22.845-21.913-17.717c1.399,5.129,8.858,12.588,14.453,17.717c5.595,5.129,20.98,13.055,20.98,13.055
		s-9.325-0.466-13.055-0.932c-3.73-0.466,0.409,2.487-5.623-1.088c-6.032-3.575-13.492-11.5-19.553-19.893
		c-6.061-8.392-8.858-6.527-4.662-1.399c4.196,5.129,8.858,13.521,11.189,16.784c2.331,3.264,5.129,5.129,5.129,6.993
		s5.129,0.466,0,1.865c-5.129,1.399-14.919-6.993-20.048-14.919c-5.129-7.926-11.19-30.771-8.392-16.784s7.926,25.643,12.122,29.372
		c4.196,3.73,6.993,5.129,6.993,5.129s-7.46-0.932-12.122-6.993s-11.19-28.44-11.19-37.765c0-9.325,0.932-14.453,3.264-11.656
		c2.331,2.797,5.129,12.588,6.527,11.656c1.399-0.932-5.129-24.71-2.331-20.514c2.797,4.196,21.447,31.237,18.183,22.379
		c-3.264-8.858-10.257-18.183-12.122-23.311C286.367,307.811,287.766,305.013,287.766,305.013z"/>
	<path style="fill:none;stroke:#263238;stroke-width:2;stroke-linecap:round;stroke-linejoin:round;stroke-miterlimit:10;" d="
		M149.668,242.844c0,0-0.544-6.523,1.087-8.697c1.631-2.174,3.805-1.902,3.805-1.902s-3.261-8.969,10.871-14.948
		c14.132-5.979,36.69-1.087,36.69-1.087s10.599-3.533,21.199-3.805c10.599-0.272,15.491-2.99,17.394-4.62
		c1.902-1.631,8.697-6.251,20.927-6.251c12.23,0,20.112,0.272,20.112,0.272s9.784-12.23,11.415-20.112
		c1.631-7.882,8.153-13.317,8.153-13.317"/>
	<path style="fill:none;stroke:#263238;stroke-width:2;stroke-linecap:round;stroke-linejoin:round;stroke-miterlimit:10;" d="
		M285.285,169.736c0,0,7.882,5.436,7.882,11.958"/>
	<path style="fill:none;stroke:#263238;stroke-width:2;stroke-linecap:round;stroke-linejoin:round;stroke-miterlimit:10;" d="
		M266.26,163.485c0,0-12.774-1.087-13.861,14.404c-1.087,15.491,7.338,23.101,9.241,23.645"/>
	<path style="fill:none;stroke:#263238;stroke-width:2;stroke-linecap:round;stroke-linejoin:round;stroke-miterlimit:10;" d="
		M276.682,152.05c11.456-9.458,20.772-13.197,28.171-11.666c7.882,1.631,22.558,8.969,29.624,12.773
		c7.066,3.805,12.502,7.338,14.404,11.415c1.902,4.077,1.902,4.077,1.902,4.077"/>
	<path style="fill:none;stroke:#263238;stroke-width:2;stroke-linecap:round;stroke-linejoin:round;stroke-miterlimit:10;" d="
		M268.435,173.541c0,0-4.994-6.659,2.133-15.606"/>
	<path style="fill:none;stroke:#263238;stroke-width:2;stroke-linecap:round;stroke-linejoin:round;stroke-miterlimit:10;" d="
		M299.146,139.297l-0.815-13.317c0,0,3.533-1.087-0.544-9.512c-4.077-8.425-16.307-10.328-20.112-9.512
		c-3.805,0.815-10.056,1.359-13.861,6.523c-3.805,5.164-4.077,9.784-4.077,10.599c0,0.815-4.077,5.164-5.707,10.056
		s-2.174,7.882-2.174,7.882s-10.056-2.99-22.014,12.23"/>
	<path style="fill:none;stroke:#263238;stroke-width:2;stroke-linecap:round;stroke-linejoin:round;stroke-miterlimit:10;" d="
		M226.853,159.68c0,0-4.62,4.348-6.794,16.578c-2.174,12.23-2.446,17.666-5.979,23.916c-3.533,6.251-5.979,11.143-0.272,13.045"/>
	<path style="fill:none;stroke:#263238;stroke-width:2;stroke-linecap:round;stroke-linejoin:round;stroke-miterlimit:10;" d="
		M225.494,126.252c0,0-23.645,8.153-28.808,19.024c-5.164,10.871-6.251,22.014-5.164,27.178c0.258,1.226,0.455,2.772,0.601,4.448"/>
	<path style="fill:none;stroke:#263238;stroke-width:2;stroke-linecap:round;stroke-linejoin:round;stroke-miterlimit:10;" d="
		M190.163,167.833c0,0-3.533-4.077-7.338,5.979c-3.805,10.056-8.697,22.286-11.143,28.265c-2.446,5.979-1.087,8.697,0,9.784"/>
	<path style="fill:none;stroke:#263238;stroke-width:2;stroke-linecap:round;stroke-linejoin:round;stroke-miterlimit:10;" d="
		M182.825,173.813c0,0-7.882-5.707-14.948-5.436c-7.066,0.272-12.774,4.892-13.861,6.251c0,0-8.425-2.99-16.307,3.533
		c-7.882,6.523-8.425,14.132-8.425,14.132s-4.077-8.425-12.774-0.544s-0.543,16.579,8.153,20.383
		c8.697,3.805,29.145,13.345,29.145,13.345"/>
	<path style="fill:none;stroke:#263238;stroke-width:2;stroke-linecap:round;stroke-linejoin:round;stroke-miterlimit:10;" d="
		M129.284,192.294c0,0,7.431,9.778,14.625,13.889"/>
	<path style="fill:none;stroke:#263238;stroke-width:2;stroke-linecap:round;stroke-linejoin:round;stroke-miterlimit:10;" d="
		M154.016,174.628c0,0-0.344,17.167,3.252,27.444"/>
	<path style="fill:none;stroke:#263238;stroke-width:2;stroke-linecap:round;stroke-linejoin:round;stroke-miterlimit:10;" d="
		M129.556,155.604c0,0,2.989-5.707,1.631-10.327c-1.359-4.62-20.655-5.164-29.352,1.902c-8.697,7.066-12.502,9.512-16.578,17.394
		c-4.077,7.882-3.805,13.317-3.805,13.317s-4.62,0.544-7.066,7.066"/>
	<path style="fill:none;stroke:#263238;stroke-width:2;stroke-linecap:round;stroke-linejoin:round;stroke-miterlimit:10;" d="
		M113.793,161.583c0,0-2.718-1.087-10.599,3.261c-7.882,4.348-8.697,9.512-8.969,13.861c-0.272,4.348,1.631,8.153,1.631,8.153
		s6.795,3.805,12.23,4.077c5.436,0.272,8.425,0.272,9.241-3.533c0.815-3.805-7.61-13.861-7.61-13.861"/>
	<path style="fill:none;stroke:#263238;stroke-width:2;stroke-linecap:round;stroke-linejoin:round;stroke-miterlimit:10;" d="
		M85.528,181.966c0,0,5.707,5.707,10.327,4.892"/>
	<path style="fill:none;stroke:#263238;stroke-width:2;stroke-linecap:round;stroke-linejoin:round;stroke-miterlimit:10;" d="
		M130.643,158.321c0,0,0.544-14.133,10.871-16.035c10.328-1.902,29.624,5.436,29.624,5.436"/>
	<path style="fill:none;stroke:#263238;stroke-width:2;stroke-linecap:round;stroke-linejoin:round;stroke-miterlimit:10;" d="
		M138.796,143.102c0,0-0.543-7.338-2.718-12.23c-2.174-4.892-0.815-7.066,3.533-8.153c4.348-1.087,12.774-1.359,18.753-4.348"/>
	<path style="fill:none;stroke:#263238;stroke-width:2;stroke-linecap:round;stroke-linejoin:round;stroke-miterlimit:10;" d="
		M195.598,108.858c0,0-11.143,2.718-10.327,13.861c0.815,11.143,10.871,16.578,11.686,18.209"/>
	<path style="fill:none;stroke:#263238;stroke-width:2;stroke-linecap:round;stroke-linejoin:round;stroke-miterlimit:10;" d="
		M218.971,128.969c0,0-1.631-8.425,3.533-13.589c5.164-5.164,5.979-9.784,25.275-7.61c19.296,2.174,17.122,2.174,17.122,2.174"/>
	<path style="fill:none;stroke:#263238;stroke-width:2;stroke-linecap:round;stroke-linejoin:round;stroke-miterlimit:10;" d="
		M230.658,107.771c0,0-8.969-2.174-19.025-2.718c-10.056-0.544-36.146,2.718-46.746,4.077c-10.599,1.359-26.906,2.446-39.136,8.425
		c-12.23,5.979-15.763,9.24-15.763,9.24"/>
	<path style="fill:none;stroke:#263238;stroke-width:2;stroke-linecap:round;stroke-linejoin:round;stroke-miterlimit:10;" d="
		M133.688,114.162c0,0-0.327-2.858,5.109-8.022"/>
	<path style="fill:none;stroke:#263238;stroke-width:2;stroke-linecap:round;stroke-linejoin:round;stroke-miterlimit:10;" d="
		M320.42,207.551c3.664-8.444,5.071-16.69,7.534-21.237"/>
	<path style="fill:none;stroke:#263238;stroke-width:2;stroke-linecap:round;stroke-linejoin:round;stroke-miterlimit:10;" d="
		M207.998,242.607c4.654-0.442,9.614-0.714,11.245-0.306c3.261,0.815,15.763,4.62,22.558,1.087
		c6.794-3.533,17.394-5.436,17.394-5.436s2.718,0.544,10.871-3.261c8.153-3.805,15.22-8.153,16.035-8.425
		c0.815-0.272,19.025,3.533,27.993-7.882c0.799-1.016,1.537-2.055,2.222-3.107"/>
	<path style="fill:none;stroke:#263238;stroke-width:2;stroke-linecap:round;stroke-linejoin:round;stroke-miterlimit:10;" d="
		M160.267,238.224c0,0,10.328,11.415,14.132,10.871c3.01-0.43,15.887-3.071,21.538-4.425"/>
	<path style="fill:none;stroke:#263238;stroke-width:2;stroke-linecap:round;stroke-linejoin:round;stroke-miterlimit:10;" d="
		M180.65,247.736c0,0-5.436,10.871-0.544,25.819c4.892,14.948,10.871,24.46,10.871,24.46"/>
	<path style="fill:none;stroke:#263238;stroke-width:2;stroke-linecap:round;stroke-linejoin:round;stroke-miterlimit:10;" d="
		M231.145,271.727c2.648,0.601,4.478,0.772,8.482-1.161c7.882-3.805,14.404-5.979,19.296-5.979s9.241,3.533,16.307,4.348
		c7.066,0.815,24.46-1.359,27.993,2.174c3.533,3.533,7.61,13.589,11.686,15.22"/>
	<path style="fill:none;stroke:#263238;stroke-width:2;stroke-linecap:round;stroke-linejoin:round;stroke-miterlimit:10;" d="
		M231.145,271.727"/>
	<path style="fill:none;stroke:#263238;stroke-width:2;stroke-linecap:round;stroke-linejoin:round;stroke-miterlimit:10;" d="
		M194.239,279.263c0,0,10.327-8.697,24.188-8.969c1.813-0.035,3.38,0.008,4.751,0.102"/>
	<path style="fill:none;stroke:#263238;stroke-width:2;stroke-linecap:round;stroke-linejoin:round;stroke-miterlimit:10;" d="
		M317.355,268.663c-3.805,1.631-9.241,5.164-9.241,5.164s17.394,9.784,17.666,16.035c0.272,6.251-12.502,6.251-12.502,6.251
		s-3.315,1.223-23.058-5.146c-19.743-6.369-23.564-8.916-39.486-6.369c-15.922,2.547-16.559,3.821-25.475,8.916"/>
	<path style="fill:none;stroke:#263238;stroke-width:2;stroke-linecap:round;stroke-linejoin:round;stroke-miterlimit:10;" d="
		M362.291,279.383c7.121,0.261,13.33-0.181,14.583,2.326c1.902,3.805,1.359,6.523,1.359,6.523s24.188,10.599,23.645,14.132"/>
	<path style="fill:none;stroke:#263238;stroke-width:2;stroke-linecap:round;stroke-linejoin:round;stroke-miterlimit:10;" d="
		M281.752,256.433c0,0,13.045-4.892,23.373-5.164c10.327-0.272,32.07,7.338,33.7,11.958c1.631,4.62,1.631,11.686,12.23,14.676
		c0.925,0.261,1.87,0.476,2.826,0.654"/>
	<path style="fill:none;stroke:#263238;stroke-width:2;stroke-linecap:round;stroke-linejoin:round;stroke-miterlimit:10;" d="
		M401.606,295.297c0,0,5.164-2.99,2.174-8.969c-2.99-5.979-10.871-16.578-22.558-23.373c-11.686-6.794-21.471-6.794-21.471-6.794
		s1.902-14.676,0-22.014c-1.902-7.338-2.718-11.686-2.718-11.686"/>
	<path style="fill:none;stroke:#263238;stroke-width:2;stroke-linecap:round;stroke-linejoin:round;stroke-miterlimit:10;" d="
		M360.839,239.855c0,0,3.533-7.066,9.24-10.056"/>
	<path style="fill:none;stroke:#263238;stroke-width:2;stroke-linecap:round;stroke-linejoin:round;stroke-miterlimit:10;" d="
		M338.282,217.025c0,0,1.902,13.317,1.631,15.22c-0.272,1.902-4.349,4.348-5.979,12.23c-1.631,7.882-3.533,11.143-3.533,11.143
		s1.087,2.174,5.436,1.359c4.348-0.815,12.502-11.958,12.502-11.958"/>
	<path style="fill:none;stroke:#263238;stroke-width:2;stroke-linecap:round;stroke-linejoin:round;stroke-miterlimit:10;" d="
		M399.092,250.386c-0.34,4.688-1.427,8.629-3.193,10.667c-3.533,4.077-4.892,8.969-4.892,8.969"/>
	<path style="fill:none;stroke:#263238;stroke-width:2;stroke-linecap:round;stroke-linejoin:round;stroke-miterlimit:10;" d="
		M350.084,206.984c-2.997-2.304-4.928-6.725-1.203-11.429c5.164-6.523,14.133-11.687,14.948-12.774
		c0.815-1.087-0.272-7.61,3.261-9.24c3.533-1.631,13.861,5.164,18.753,12.23c4.892,7.066,5.979,14.948,5.436,18.481
		c-0.544,3.533,4.077,20.927,6.523,30.983c0.595,2.446,0.997,4.989,1.214,7.496"/>
	<path style="fill:none;stroke:#263238;stroke-width:2;stroke-linecap:round;stroke-linejoin:round;stroke-miterlimit:10;" d="
		M379.32,203.708c0,0-2.174-3.533-7.066-0.815c-3.476,1.931-9.146,4.273-13.698,5.273"/>
	<path style="fill:none;stroke:#263238;stroke-width:2;stroke-linecap:round;stroke-linejoin:round;stroke-miterlimit:10;" d="
		M380.951,208.6c0,0,3.805,12.23,4.62,22.286c0.815,10.056-1.359,14.132-1.359,14.132l-5.979-0.272"/>
	
		<line style="fill:none;stroke:#263238;stroke-width:2;stroke-linecap:round;stroke-linejoin:round;stroke-miterlimit:10;" x1="384.212" y1="245.018" x2="391.278" y2="249.095"/>
	<path style="fill:none;stroke:#263238;stroke-width:2;stroke-linecap:round;stroke-linejoin:round;stroke-miterlimit:10;" d="
		M298.058,131.959c0,0,0.815-13.861,17.122-9.784c16.307,4.077,15.763,28.537,15.763,28.537"/>
	<path style="fill:none;stroke:#263238;stroke-width:2;stroke-linecap:round;stroke-linejoin:round;stroke-miterlimit:10;" d="
		M328.769,139.569c0,0,4.348-4.62,13.317-3.261c8.969,1.359,12.773,4.892,12.773,4.892"/>
	<path style="fill:none;stroke:#263238;stroke-width:2;stroke-linecap:round;stroke-linejoin:round;stroke-miterlimit:10;" d="
		M347.794,141.471l13.045,11.958c0,0,2.174-1.087,6.251-0.815"/>
	<path style="fill:none;stroke:#263238;stroke-width:2;stroke-miterlimit:10;" d="M92.712,142.518c0,0-4.051,4.63-6.656,8.103
		c-2.604,3.473-3.762,6.366-3.762,6.366s-10.707,6.945-13.311,14.758c-2.604,7.813-4.051,12.733-2.894,20.546
		c1.158,7.813,4.051,14.758,4.051,14.758s0.289,7.524,12.443,12.154c12.154,4.63,47.748,18.231,49.484,19.678
		s14.758,10.418,14.758,10.418l2.894,14.758c0,0,1.736,18.231,4.63,23.15c2.894,4.919,7.524,17.941,16.784,22.861
		c9.26,4.919,20.835,4.63,28.07,2.894c7.234-1.736,12.154-4.051,28.648-9.55s22.572-6.945,23.729-7.234s40.224,8.103,50.931,6.077
		c10.707-2.026,15.048-6.077,15.048-6.077s5.498,10.418,13.601,15.337c8.103,4.919,29.806,15.916,32.41,17.941
		c2.604,2.026,5.788,8.392,13.311,7.234c7.524-1.158,11.575-10.996,12.443-12.154s11.575-14.18,14.758-20.546
		c3.183-6.366,4.341-11.286,4.341-11.286s9.839-10.128,7.813-27.202c-2.026-17.073-4.341-31.542-8.681-43.986
		s-6.656-17.073-6.656-17.073s-2.894-27.491-16.205-40.224c-13.311-12.733-21.125-16.495-21.125-16.495s-9.26-14.18-21.993-19.388
		c-12.733-5.209-31.832-19.967-40.802-23.44c-8.971-3.473-14.18-0.868-14.18-0.868s-24.597-7.813-42.828-7.813
		c-18.231,0-18.231,0-18.231,0s-17.941-3.762-36.172,0s-37.33,0.868-50.641,6.656c-13.311,5.788-27.491,19.388-27.491,19.388
		S96.185,131.811,92.712,142.518z"/>
</g>
</svg>
